<svg width="92" height="92" viewBox="0 0 92 92" fill="none" xmlns="http://www.w3.org/2000/svg">
<circle cx="46.4865" cy="45.8637" r="45.5205" fill="#1A4963"/>
<path d="M52.9041 31.297C53.8066 30.776 54.9185 30.776 55.8209 31.297L69.0421 38.9303C69.9446 39.4513 70.5005 40.4142 70.5005 41.4563L70.5005 56.7229C70.5005 57.7649 69.9446 58.7278 69.0421 59.2489L55.8209 66.8821C54.9185 67.4032 53.8066 67.4032 52.9041 66.8821L39.6829 59.2489C38.7805 58.7278 38.2245 57.7649 38.2245 56.7229L38.2245 41.4563C38.2245 40.4142 38.7805 39.4513 39.6829 38.9303L52.9041 31.297Z" fill="white"/>
<rect x="54.1174" y="54.2777" width="14.3643" height="9.53658" transform="rotate(90 54.1174 54.2777)" fill="#1A4963"/>
<path d="M57.3429 30.177L44.1216 22.5437C42.6848 21.7141 40.9145 21.7141 39.4777 22.5437L26.2565 30.177C24.8196 31.0065 23.9345 32.5396 23.9345 34.1987L23.9345 49.4653C23.9345 51.1244 24.8196 52.6575 26.2565 53.487L39.4777 61.1203C40.9145 61.9499 42.6848 61.9499 44.1216 61.1203L57.3429 53.487C58.7797 52.6575 59.6648 51.1244 59.6648 49.4653L59.6648 34.1987C59.6648 32.5396 58.7797 31.0065 57.3429 30.177Z" fill="white" stroke="#1A4963" stroke-width="3.45429"/>
<rect x="28.2832" y="23.0854" width="36.8693" height="2.9202" rx="1.4601" transform="rotate(30 28.2832 23.0854)" fill="#1A4963"/>
<rect x="21.4359" y="37.1668" width="35.9394" height="2.9202" rx="1.4601" transform="rotate(30 21.4359 37.1668)" fill="#1A4963"/>
</svg>
